<svg width="1434" height="1088" viewBox="0 0 1434 1088" fill="none" xmlns="http://www.w3.org/2000/svg">
<path d="M714.417 707.11V654.886C714.417 649.708 718.615 645.511 723.792 645.511H733.457V697.735C733.457 702.912 729.26 707.11 724.082 707.11H714.417Z" fill="white"/>
<path d="M688.664 691.43V671.686C688.664 666.508 692.861 662.311 698.039 662.311H707.703V682.055C707.703 687.233 703.506 691.43 698.328 691.43H688.664Z" fill="white"/>
<path d="M740.18 725.028V638.085C740.18 632.907 744.377 628.71 749.555 628.71H759.219V715.653C759.219 720.83 755.022 725.028 749.844 725.028H740.18Z" fill="white"/>
<path d="M765.94 707.11V654.886C765.94 649.708 770.137 645.511 775.315 645.511H784.979V697.735C784.979 702.912 780.782 707.11 775.604 707.11H765.94Z" fill="white"/>
<path d="M791.684 691.43V671.686C791.684 666.508 795.881 662.311 801.059 662.311H810.724V682.055C810.724 687.233 806.526 691.43 801.349 691.43H791.684Z" fill="white"/>
<path d="M164.341 664.181L236.547 900.664H239.227L311.433 664.181H398.774L289.835 987.059H185.94L77 664.181H164.341Z" fill="white"/>
<path d="M688.132 825.62C688.132 861.145 681.3 891.257 667.637 915.957C653.973 940.656 635.475 959.417 612.142 972.239C588.914 985.062 562.848 991.473 533.945 991.473C504.936 991.473 478.818 985.009 455.59 972.082C432.362 959.154 413.917 940.393 400.253 915.799C386.695 891.1 379.916 861.04 379.916 825.62C379.916 790.095 386.695 759.983 400.253 735.284C413.917 710.584 432.362 691.823 455.59 679.001C478.818 666.178 504.936 659.767 533.945 659.767C562.848 659.767 588.914 666.178 612.142 679.001C635.475 691.823 653.973 710.584 667.637 735.284C681.3 759.983 688.132 790.095 688.132 825.62ZM608.358 825.62C608.358 804.6 605.363 786.837 599.372 772.333C593.486 757.828 584.973 746.845 573.832 739.383C562.796 731.92 549.5 728.189 533.945 728.189C518.495 728.189 505.199 731.92 494.058 739.383C482.917 746.845 474.351 757.828 468.36 772.333C462.474 786.837 459.532 804.6 459.532 825.62C459.532 846.641 462.474 864.403 468.36 878.908C474.351 893.412 482.917 904.395 494.058 911.858C505.199 919.32 518.495 923.051 533.945 923.051C549.5 923.051 562.796 919.32 573.832 911.858C584.973 904.395 593.486 893.412 599.372 878.908C605.363 864.403 608.358 846.641 608.358 825.62Z" fill="white"/>
<path d="M1109.41 781.161H1030.58C1029.53 773.068 1027.38 765.764 1024.12 759.247C1020.86 752.731 1016.55 747.16 1011.19 742.536C1005.83 737.911 999.472 734.39 992.115 731.973C984.863 729.45 976.822 728.189 967.994 728.189C952.333 728.189 938.827 732.025 927.476 739.698C916.23 747.371 907.559 758.459 901.463 772.963C895.472 787.468 892.477 805.02 892.477 825.62C892.477 847.061 895.525 865.034 901.621 879.538C907.822 893.938 916.493 904.816 927.634 912.173C938.88 919.425 952.175 923.051 967.521 923.051C976.139 923.051 983.969 921.947 991.011 919.74C998.158 917.533 1004.41 914.327 1009.77 910.123C1015.24 905.814 1019.7 900.612 1023.17 894.515C1026.75 888.314 1029.22 881.325 1030.58 873.547L1109.41 874.02C1108.04 888.315 1103.89 902.398 1096.96 916.272C1090.12 930.146 1080.72 942.81 1068.74 954.267C1056.75 965.618 1042.14 974.657 1024.91 981.383C1007.78 988.11 988.121 991.473 965.944 991.473C936.725 991.473 910.554 985.062 887.432 972.239C864.414 959.312 846.231 940.498 832.883 915.799C819.535 891.1 812.861 861.04 812.861 825.62C812.861 790.095 819.64 759.983 833.198 735.284C846.757 710.584 865.097 691.823 888.22 679.001C911.343 666.178 937.251 659.767 965.944 659.767C985.493 659.767 1003.57 662.499 1020.18 667.965C1036.78 673.325 1051.39 681.208 1064.01 691.613C1076.62 701.913 1086.87 714.578 1094.75 729.608C1102.63 744.638 1107.52 761.822 1109.41 781.161Z" fill="white"/>
<path d="M1131.87 987.059V664.181H1357V727.559H1209.91V793.774H1345.49V857.309H1209.91V923.682H1357V987.059H1131.87Z" fill="white"/>
<path fill-rule="evenodd" clip-rule="evenodd" d="M789.536 987.059V752.379H711.496V987.059H789.536Z" fill="white"/>
<path d="M77 590.679V103.192H272.662C308.613 103.192 338.598 108.508 362.619 119.14C386.639 129.772 404.694 144.53 416.784 163.414C428.873 182.139 434.918 203.72 434.918 228.158C434.918 247.2 431.1 263.942 423.465 278.382C415.829 292.664 405.33 304.407 391.968 313.611C378.765 322.656 363.653 329.083 346.632 332.891V337.652C365.243 338.445 382.662 343.682 398.888 353.362C415.272 363.042 428.555 376.61 438.736 394.065C448.917 411.362 454.007 431.991 454.007 455.953C454.007 481.819 447.565 504.908 434.68 525.22C421.954 545.374 403.103 561.322 378.128 573.064C353.154 584.807 322.373 590.679 285.786 590.679H77ZM180.319 506.416H264.549C293.342 506.416 314.34 500.941 327.543 489.992C340.746 478.884 347.348 464.126 347.348 445.718C347.348 432.23 344.087 420.328 337.564 410.013C331.042 399.699 321.737 391.606 309.647 385.734C297.716 379.863 283.479 376.927 266.935 376.927H180.319V506.416ZM180.319 307.184H256.914C271.071 307.184 283.638 304.724 294.614 299.805C305.749 294.727 314.499 287.586 320.862 278.382C327.384 269.178 330.645 258.15 330.645 245.296C330.645 227.682 324.361 213.479 311.794 202.689C299.386 191.898 281.729 186.503 258.822 186.503H180.319V307.184Z" fill="white"/>
<path fill-rule="evenodd" clip-rule="evenodd" d="M1253.27 590.679V215.38H1356.59V590.679H1253.27Z" fill="white"/>
<path d="M956.174 399.064L1016.33 214.59H1020.15L1080.19 399.064H956.174ZM1106.38 479.518L1142.56 590.679H1253.27L1084.81 103.192H951.669L812.13 506.416H607.312V503.083L678.657 433.34C712.222 402.872 738.231 376.768 756.683 355.028C775.136 333.129 787.942 313.214 795.1 295.282C802.418 277.351 806.076 259.181 806.076 240.773C806.076 212.686 798.838 187.772 784.363 166.032C769.887 144.292 749.605 127.312 723.516 115.093C697.587 102.716 667.125 96.5269 632.128 96.5269C598.086 96.5269 568.021 102.954 541.933 115.807C515.844 128.661 495.562 146.831 481.087 170.316C466.611 193.802 459.373 221.493 459.373 253.389H557.442C557.442 237.838 560.465 224.429 566.51 213.162C572.555 201.895 581.145 193.247 592.28 187.217C603.415 181.187 616.459 178.171 631.412 178.171C645.729 178.171 658.534 181.028 669.829 186.741C681.123 192.295 690.031 200.308 696.553 210.782C703.075 221.096 706.336 233.394 706.336 247.676C706.336 260.53 703.712 272.511 698.462 283.619C693.213 294.568 685.498 305.756 675.317 317.181C665.295 328.607 652.887 341.46 638.093 355.742L464.145 516.413V590.679H782.97H812.519H893.686L929.937 479.518H1106.38Z" fill="white"/>
<path d="M1328.22 182.472C1343.89 182.472 1356.59 169.768 1356.59 154.097V104.109H1282.02C1266.34 104.109 1253.64 116.813 1253.64 132.484V182.472H1328.22Z" fill="white"/>
</svg>
